HIERARCHY
ROOT Hips
{
	OFFSET 0.00000 0.00000 0.00000
	CHANNELS 6 Xposition Yposition Zposition Yrotation Zrotation Xrotation 
	JOINT Lumbar
	{
		OFFSET 0 0 0
		CHANNELS 3 Zrotation Xrotation Yrotation
		JOINT Neck
		{
			OFFSET 0.00 0.2701 0.00
			CHANNELS 3 Zrotation Xrotation Yrotation
			End Site
			{
				OFFSET 0.00 0.1379 0.00
			}
		}
		JOINT RightShoulder
		{
			OFFSET 0.0119 0.2289 0.1181
			CHANNELS 3 Zrotation Xrotation Yrotation
			JOINT RightElbow
			{
				OFFSET 0.00 -0.1475 0.00
				CHANNELS 2 Zrotation Yrotation
				JOINT RightWrist
				{
					OFFSET 0.00 -0.1605 0.00
					CHANNELS 2 Zrotation Xrotation
					End Site
					{
						OFFSET 0.0040 -0.1068 0.0006
					}
				}
			}
		}
		JOINT LeftShoulder
		{
			OFFSET 0.0119 0.2289 -0.1181
			CHANNELS 3 Zrotation Xrotation Yrotation
			JOINT LeftElbow
			{
				OFFSET 0.00 -0.1475 0.00
				CHANNELS 2 Zrotation Yrotation
				JOINT LeftWrist
				{
					OFFSET 0.00 -0.1605 0.00
					CHANNELS 2 Zrotation Xrotation
					End Site
					{
						OFFSET 0.0040 -0.1068 -0.0006
					}
				}
			}
		}
	}
	JOINT RightHip
	{
		OFFSET 0.0316 -0.0424 0.0458
		CHANNELS 3 Zrotation Xrotation Yrotation
		JOINT RightKnee
		{
			OFFSET 0.00 -0.2438 0.00
			CHANNELS 1 Zrotation
			JOINT RightAnkle
			{
				OFFSET 0.00 -0.2449 0.00
				CHANNELS 3 Zrotation Xrotation Yrotation
				End Site
				{
					OFFSET 0.1237 -0.0542 0.0051
				}
			}
		}
	}
	JOINT LeftHip
	{
		OFFSET 0.0316 -0.0424 -0.0458
		CHANNELS 3 Zrotation Xrotation Yrotation
		JOINT LeftKnee
		{
			OFFSET 0.00 -0.2438 0.00
			CHANNELS 1 Zrotation
			JOINT LeftAnkle
			{
				OFFSET 0.00 -0.2449 0.00
				CHANNELS 3 Zrotation Xrotation Yrotation
				End Site
				{
					OFFSET 0.1237 -0.0542 -0.0051
				}
			}
		}
	}
}
MOTION
Frames: 29
Frame Time: 0.02
-0.02025 0.58038 0.00145 211.45027 0 -3.42876 8.47072 3.75805 4.91262 -23.68067 3.49512 6.37227 78.82282 -14.97448 18.45111 18.37328 52.03973 -9.0173 6.37374 -11.38365 5.66509 -60.11936 65.05886 -26.15111 63.86754 9.66173 -7.34888 8.53947 10.61437 -3.69785 0.57813 -6.29387 -14.0227 -5.47101 0.38491 -11.72449 -7.22408 7.06139 6.53667 8.95284
-0.02037 0.58039 0.0015 211.36588 0 -3.43989 8.47628 3.74979 4.70459 -23.91354 3.632 6.32427 79.61975 -14.7606 19.10481 18.68366 53.09392 -8.88223 6.14187 -11.17498 5.28861 -60.0653 64.78187 -25.42015 63.80422 9.85082 -7.33186 8.50471 9.57137 -3.73486 0.73237 -6.08198 -12.87989 -5.48935 0.38797 -11.67789 -7.22874 7.07123 6.55583 8.99128
-0.02049 0.5804 0.00154 211.29543 0 -3.44857 8.48382 3.73231 4.46264 -24.18405 3.76849 6.27006 80.35611 -14.50256 19.65553 18.92015 54.31614 -8.72917 5.86898 -10.93087 4.88452 -60.00468 64.47649 -24.74086 63.71033 10.04521 -7.30506 8.4455 7.75413 -3.78722 1.00045 -5.7018 -10.96633 -5.50448 0.3898 -11.65926 -7.23794 7.081 6.57749 9.04346
-0.02063 0.5804 0.00158 211.21838 0 -3.45853 8.49097 3.71827 4.24325 -24.42185 3.90149 6.22137 81.0652 -14.27793 20.24215 19.17833 55.44478 -8.57376 5.62707 -10.72235 4.50499 -59.94789 64.20201 -24.04099 63.60613 10.23797 -7.28439 8.39991 6.35325 -3.8311 1.20867 -5.40834 -9.46783 -5.52161 0.39265 -11.62636 -7.24541 7.09225 6.59768 9.08823
-0.02073 0.58041 0.00162 211.14165 0 -3.46792 8.49568 3.70725 3.99316 -24.72796 4.05293 6.16219 82.01887 -13.99883 20.8885 19.49209 56.6495 -8.46065 5.33281 -10.42969 4.07025 -59.88784 63.854 -23.33013 63.59088 10.42783 -7.25676 8.34429 4.69431 -3.88076 1.44865 -5.07412 -7.70964 -5.53645 0.39372 -11.59885 -7.25134 7.09724 6.61911 9.13753
-0.02089 0.5804 0.00166 211.06855 0 -3.47777 8.50566 3.68786 3.79894 -24.8974 4.16331 6.12185 82.43788 -13.82092 21.37776 19.67006 57.74239 -8.25561 5.13624 -10.30701 3.74802 -59.83267 63.65213 -22.6548 63.3861 10.62481 -7.24132 8.30343 3.38154 -3.92219 1.65074 -4.78397 -6.3026 -5.55522 0.39807 -11.56786 -7.26163 7.11524 6.63871 9.18077
-0.02126 0.58034 0.00172 210.99368 0 -3.49072 8.53425 3.64723 3.77015 -24.7095 4.17772 6.1501 81.46568 -13.94674 21.49624 19.49644 58.38244 -7.80635 5.24057 -10.63289 3.71477 -59.7954 63.85295 -22.05428 62.69192 10.84052 -7.26099 8.31068 3.24069 -3.93787 1.71703 -4.65564 -6.07288 -5.58648 0.41262 -11.51256 -7.28253 7.16998 6.65152 9.20427
-0.02169 0.58026 0.00178 210.92352 0 -3.50404 8.56723 3.59871 3.79843 -24.37727 4.14735 6.19499 79.94326 -14.17359 21.45269 19.18721 58.91897 -7.26504 5.4409 -11.13663 3.80159 -59.76267 64.20316 -21.48924 61.80605 11.06314 -7.29342 8.3334 3.46973 -3.94466 1.74195 -4.57738 -6.21921 -5.62159 0.43037 -11.45432 -7.30782 7.23768 6.66262 9.22122
-0.02209 0.58018 0.00184 210.85676 0 -3.51628 8.59539 3.55392 3.79872 -24.09203 4.12603 6.22216 78.62592 -14.34489 21.45571 18.93568 59.57184 -6.76225 5.58386 -11.57783 3.85192 -59.72611 64.48916 -20.91482 60.99187 11.28229 -7.32062 8.34797 3.5084 -3.9552 1.7886 -4.47645 -6.17734 -5.65446 0.44603 -11.40266 -7.33118 7.29892 6.67527 9.24092
-0.02249 0.58011 0.00189 210.76723 0 -3.53202 8.63588 3.50771 3.80611 -23.88686 4.15264 6.2911 77.49717 -14.55422 21.56528 18.69755 59.94884 -6.27096 5.78376 -11.93967 3.82354 -59.69708 64.75722 -20.31444 60.23846 11.50291 -7.34506 8.36607 3.6083 -3.96766 1.82781 -4.36906 -6.17615 -5.68955 0.46418 -11.32989 -7.35403 7.36257 6.68479 9.26185
-0.0229 0.58003 0.00197 210.72589 0 -3.54091 8.65127 3.4633 3.81316 -23.47988 4.06851 6.27816 75.8448 -14.71031 21.42114 18.40114 60.86036 -5.73639 5.88791 -12.51065 3.98971 -59.65317 65.10031 -19.77505 59.31716 11.72218 -7.37844 8.38126 3.68609 -3.97359 1.86999 -4.28953 -6.19667 -5.72065 0.47812 -11.29992 -7.37943 7.42429 6.70035 9.27872
-0.02331 0.57992 0.00213 210.81799 0 -3.52785 8.60001 3.42062 3.80146 -22.55301 3.69316 6.02601 72.88923 -14.68405 20.57072 17.96938 63.38687 -5.08515 5.70921 -13.60626 4.6487 -59.57057 65.59733 -19.40314 57.94717 11.93442 -7.43299 8.38075 3.549 -3.96556 1.94094 -4.27182 -6.12547 -5.74259 0.47794 -11.38966 -7.40623 7.47737 6.73341 9.2839
-0.02373 0.57979 0.00232 210.95804 0 -3.50839 8.52257 3.38093 3.78822 -21.42757 3.20813 5.69275 69.42515 -14.60371 19.48028 17.48549 66.43358 -4.3972 5.4306 -14.90803 5.50177 -59.47243 66.16717 -19.09024 56.42075 12.14517 -7.49611 8.37754 3.3912 -3.95092 2.01406 -4.28127 -6.07677 -5.75989 0.47372 -11.52224 -7.43616 7.52805 6.7725 9.28552
-0.02413 0.57967 0.0025 211.07513 0 -3.49383 8.45475 3.34344 3.77856 -20.39137 2.76982 5.40241 66.18803 -14.55435 18.52896 17.03072 69.16565 -3.73924 5.19406 -16.12192 6.27661 -59.37886 66.71574 -18.74428 54.98743 12.35786 -7.5557 8.37829 3.29004 -3.93789 2.0784 -4.28169 -6.06245 -5.77746 0.47253 -11.63459 -7.4678 7.58 6.80858 9.29012
-0.02456 0.57954 0.00268 211.19751 0 -3.47105 8.397 3.29106 3.75921 -19.35394 2.33951 5.08647 62.94634 -14.47831 17.44192 16.54795 72.22116 -3.02235 4.97295 -17.31794 7.01561 -59.29506 67.22276 -18.42366 53.45552 12.56619 -7.61456 8.36829 3.00756 -3.93011 2.17312 -4.27197 -5.87801 -5.80282 0.4665 -11.75021 -7.48686 7.63183 6.84583 9.2889
-0.02494 0.57944 0.00285 211.31999 0 -3.46367 8.31163 3.26998 3.75833 -18.27437 1.87163 4.8051 59.60406 -14.44765 16.58669 16.11325 74.73206 -2.42008 4.69719 -18.5972 7.87118 -59.1883 67.82772 -18.06666 52.09302 12.78226 -7.67637 8.3795 3.08603 -3.91034 2.20708 -4.28642 -6.04148 -5.81092 0.46944 -11.86907 -7.53219 7.68292 6.88202 9.29887
-0.02521 0.57946 0.00302 211.43258 0 -3.50184 8.15937 3.33937 3.8139 -17.12148 1.28675 4.63236 56.08106 -14.5195 16.39508 15.82219 75.57404 -2.14941 4.2731 -20.06067 9.02529 -59.01337 68.71658 -17.56831 51.24395 13.02889 -7.74788 8.45291 4.2247 -3.85573 2.05995 -4.38581 -7.21747 -5.77152 0.499 -11.9876 -7.65438 7.73459 6.91427 9.3419
-0.02542 0.57952 0.00319 211.54319 0 -3.55541 7.97953 3.4394 3.8869 -15.93412 0.67471 4.49801 52.4823 -14.64391 16.45094 15.58252 75.8564 -1.99499 3.80082 -21.59902 10.28643 -58.81815 69.69347 -17.03492 50.56702 13.28254 -7.8212 8.54707 5.71336 -3.79004 1.85411 -4.50458 -8.72898 -5.71511 0.53754 -12.10756 -7.80177 7.78511 6.94511 9.39601
-0.02565 0.57957 0.00335 211.65385 0 -3.60101 7.81048 3.52221 3.94834 -14.76772 0.10274 4.35085 48.93887 -14.76893 16.41935 15.32101 76.42174 -1.78343 3.36478 -23.09899 11.48019 -58.63693 70.61063 -16.53619 49.81167 13.52603 -7.89135 8.62981 7.00335 -3.73153 1.68386 -4.59688 -10.04921 -5.66707 0.5714 -12.22627 -7.93442 7.83484 6.97636 9.44435
-0.02592 0.57962 0.00354 211.77028 0 -3.65063 7.64831 3.61868 4.02514 -13.57467 -0.58663 4.18283 45.28885 -14.79368 16.27991 15.05046 76.88893 -1.58747 2.86582 -24.62455 12.75365 -58.43211 71.61958 -15.96513 49.06528 13.79534 -7.97215 8.72113 8.46542 -3.66335 1.47641 -4.7612 -11.53979 -5.61601 0.60769 -12.3496 -8.08163 7.89028 7.00898 9.49604
-0.02609 0.57966 0.00367 211.87296 0 -3.69546 7.46507 3.69441 4.07407 -12.42815 -1.04091 4.06651 41.84984 -15.0342 16.41922 14.81256 77.41493 -1.38869 2.48645 -26.11199 13.89182 -58.27547 72.44993 -15.52976 48.32591 14.01705 -8.03057 8.79921 9.64571 -3.61324 1.33203 -4.78416 -12.74795 -5.56748 0.64107 -12.46236 -8.20376 7.93328 7.03809 9.54299
-0.02601 0.57969 0.00366 211.94297 0 -3.72481 7.23509 3.70147 4.04187 -11.44952 -0.79984 4.10087 39.01469 -15.91253 17.3377 14.64552 78.2889 -1.14018 2.46067 -27.47032 14.558 -58.22229 72.82098 -15.55177 47.71298 14.05908 -8.03109 8.8386 10.02168 -3.61163 1.37992 -4.37342 -13.15514 -5.52836 0.66449 -12.55118 -8.25656 7.94478 7.06006 9.57799
-0.02583 0.57972 0.00358 211.99786 0 -3.74861 6.98421 3.68737 3.98089 -10.51458 -0.32745 4.18341 36.39775 -16.99691 18.51737 14.51153 79.22987 -0.88722 2.55521 -28.78536 15.09409 -58.22235 72.99384 -15.71408 47.07448 14.05614 -8.00819 8.8635 10.09286 -3.62932 1.49251 -3.82642 -13.25671 -5.49273 0.68466 -12.62786 -8.28214 7.94337 7.0781 9.60717
-0.0257 0.57974 0.00352 212.0565 0 -3.77391 6.73982 3.68543 3.93318 -9.53982 0.01286 4.23252 33.68039 -17.95036 19.53146 14.36651 80.10537 -0.64576 2.5876 -30.12574 15.73957 -58.22397 73.22662 -15.74211 46.35023 14.11133 -7.9931 8.89301 10.26226 -3.64099 1.57313 -3.36752 -13.45591 -5.45668 0.70612 -12.70643 -8.31614 7.94614 7.09643 9.63646
-0.02559 0.57977 0.00349 212.1291 0 -3.80381 6.50675 3.67362 3.88577 -8.64628 0.46335 4.33034 30.96075 -19.06015 20.74765 14.20458 81.10868 -0.36962 2.64987 -31.45447 16.18791 -58.12641 73.60896 -15.99827 46.04151 14.03032 -7.98994 8.93121 10.60618 -3.64097 1.66293 -2.80047 -13.83403 -5.41511 0.72857 -12.80115 -8.36754 7.95585 7.121 9.67673
-0.02539 0.57979 0.00338 212.16804 0 -3.82289 6.24601 3.67719 3.83007 -7.5966 0.74292 4.33925 28.3045 -19.89618 21.60711 14.08735 81.86997 -0.16154 2.67903 -32.78422 17.00044 -58.23547 73.60758 -15.89883 44.8608 14.19375 -7.95648 8.94805 10.51947 -3.66966 1.74923 -2.42399 -13.7713 -5.3861 0.74823 -12.85836 -8.37608 7.94825 7.13172 9.69274
-0.02498 0.57981 0.00306 212.1262 0 -3.81096 5.90991 3.72632 3.76413 -6.08742 0.46595 4.07688 25.72319 -19.89429 21.36846 14.06641 81.93946 -0.15579 2.58838 -34.22684 18.97237 -59.01091 72.80398 -14.01858 41.26478 15.29459 -7.84401 8.90556 9.23124 -3.77602 1.81457 -2.62492 -12.488 -5.39098 0.75958 -12.82299 -8.27138 7.89444 7.1046 9.64196
-0.02449 0.57982 0.00265 212.04934 0 -3.78874 5.54772 3.79196 3.69007 -4.42353 0.01415 3.72571 23.20827 -19.61531 20.76842 14.09305 81.76738 -0.21561 2.46025 -35.65146 21.29316 -59.97126 71.58491 -11.89744 36.79599 16.6013 -7.70207 8.84269 7.53415 -3.91003 1.87358 -3.0189 -10.78386 -5.40845 0.76846 -12.74873 -8.12469 7.824 7.0638 9.5672
-0.02403 0.57984 0.00227 211.98306 0 -3.77273 5.20011 3.85118 3.61549 -2.8417 -0.33885 3.42428 20.69282 -19.48371 20.36647 14.1096 81.71304 -0.23612 2.34889 -37.02065 23.3722 -60.77687 70.4144 -10.41494 32.73212 17.64205 -7.57425 8.79165 6.08012 -4.02949 1.93281 -3.31271 -9.32264 -5.4202 0.77935 -12.68705 -7.99804 7.76219 7.02963 9.50413
